<svg version="1.1" xmlns="http://www.w3.org/2000/svg" xmlns:xlink="http://www.w3.org/1999/xlink" width="556" height="727"><defs/><g><text fill="#eeeeee" stroke="none" font-family="Arial" font-size="24px" font-style="normal" font-weight="normal" text-decoration="none" x="0" y="0"></text><text fill="#eeeeee" stroke="none" font-family="Arial" font-size="24px" font-style="normal" font-weight="normal" text-decoration="none" x="0" y="30"></text><text fill="#eeeeee" stroke="none" font-family="Arial" font-size="24px" font-style="normal" font-weight="normal" text-decoration="none" x="0" y="60"></text><text fill="#eeeeee" stroke="none" font-family="Arial" font-size="24px" font-style="normal" font-weight="normal" text-decoration="none" x="0" y="90"></text><text fill="#eeeeee" stroke="none" font-family="Arial" font-size="24px" font-style="normal" font-weight="normal" text-decoration="none" x="0" y="120"></text><text fill="#eeeeee" stroke="none" font-family="Arial" font-size="24px" font-style="normal" font-weight="normal" text-decoration="none" x="0" y="150"></text><text fill="#eeeeee" stroke="none" font-family="Arial" font-size="24px" font-style="normal" font-weight="normal" text-decoration="none" x="0" y="180"></text><text fill="#eeeeee" stroke="none" font-family="Arial" font-size="24px" font-style="normal" font-weight="normal" text-decoration="none" x="0" y="210"></text><text fill="#eeeeee" stroke="none" font-family="Arial" font-size="24px" font-style="normal" font-weight="normal" text-decoration="none" x="0" y="240"></text><text fill="#eeeeee" stroke="none" font-family="Arial" font-size="24px" font-style="normal" font-weight="normal" text-decoration="none" x="0" y="270"></text><text fill="#eeeeee" stroke="none" font-family="Arial" font-size="24px" font-style="normal" font-weight="normal" text-decoration="none" x="0" y="300"></text><text fill="#eeeeee" stroke="none" font-family="Arial" font-size="24px" font-style="normal" font-weight="normal" text-decoration="none" x="0" y="330"></text><text fill="#eeeeee" stroke="none" font-family="Arial" font-size="24px" font-style="normal" font-weight="normal" text-decoration="none" x="0" y="360"></text><text fill="#eeeeee" stroke="none" font-family="Arial" font-size="24px" font-style="normal" font-weight="normal" text-decoration="none" x="0" y="390"></text><text fill="#eeeeee" stroke="none" font-family="Arial" font-size="24px" font-style="normal" font-weight="normal" text-decoration="none" x="0" y="420"></text><text fill="#eeeeee" stroke="none" font-family="Arial" font-size="24px" font-style="normal" font-weight="normal" text-decoration="none" x="0" y="450"></text><text fill="#eeeeee" stroke="none" font-family="Arial" font-size="24px" font-style="normal" font-weight="normal" text-decoration="none" x="0" y="480"></text><text fill="#eeeeee" stroke="none" font-family="Arial" font-size="24px" font-style="normal" font-weight="normal" text-decoration="none" x="0" y="510"></text><text fill="#eeeeee" stroke="none" font-family="Arial" font-size="24px" font-style="normal" font-weight="normal" text-decoration="none" x="0" y="540"></text><text fill="#eeeeee" stroke="none" font-family="Arial" font-size="24px" font-style="normal" font-weight="normal" text-decoration="none" x="0" y="570"></text><text fill="#eeeeee" stroke="none" font-family="Arial" font-size="24px" font-style="normal" font-weight="normal" text-decoration="none" x="0" y="600"></text><text fill="#eeeeee" stroke="none" font-family="Arial" font-size="24px" font-style="normal" font-weight="normal" text-decoration="none" x="0" y="630"></text><text fill="#eeeeee" stroke="none" font-family="Arial" font-size="24px" font-style="normal" font-weight="normal" text-decoration="none" x="0" y="660"></text><text fill="#eeeeee" stroke="none" font-family="Arial" font-size="24px" font-style="normal" font-weight="normal" text-decoration="none" x="0" y="690"></text><text fill="#eeeeee" stroke="none" font-family="Arial" font-size="24px" font-style="normal" font-weight="normal" text-decoration="none" x="0" y="720"></text><text fill="#eeeeee" stroke="none" font-family="Arial" font-size="24px" font-style="normal" font-weight="normal" text-decoration="none" x="200" y="0"></text><text fill="#eeeeee" stroke="none" font-family="Arial" font-size="24px" font-style="normal" font-weight="normal" text-decoration="none" x="200" y="30"></text><text fill="#eeeeee" stroke="none" font-family="Arial" font-size="24px" font-style="normal" font-weight="normal" text-decoration="none" x="200" y="60"></text><text fill="#eeeeee" stroke="none" font-family="Arial" font-size="24px" font-style="normal" font-weight="normal" text-decoration="none" x="200" y="90"></text><text fill="#eeeeee" stroke="none" font-family="Arial" font-size="24px" font-style="normal" font-weight="normal" text-decoration="none" x="200" y="120"></text><text fill="#eeeeee" stroke="none" font-family="Arial" font-size="24px" font-style="normal" font-weight="normal" text-decoration="none" x="200" y="150"></text><text fill="#eeeeee" stroke="none" font-family="Arial" font-size="24px" font-style="normal" font-weight="normal" text-decoration="none" x="200" y="180"></text><text fill="#eeeeee" stroke="none" font-family="Arial" font-size="24px" font-style="normal" font-weight="normal" text-decoration="none" x="200" y="210"></text><text fill="#eeeeee" stroke="none" font-family="Arial" font-size="24px" font-style="normal" font-weight="normal" text-decoration="none" x="200" y="240"></text><text fill="#eeeeee" stroke="none" font-family="Arial" font-size="24px" font-style="normal" font-weight="normal" text-decoration="none" x="200" y="270"></text><text fill="#eeeeee" stroke="none" font-family="Arial" font-size="24px" font-style="normal" font-weight="normal" text-decoration="none" x="200" y="300"></text><text fill="#eeeeee" stroke="none" font-family="Arial" font-size="24px" font-style="normal" font-weight="normal" text-decoration="none" x="200" y="330"></text><text fill="#eeeeee" stroke="none" font-family="Arial" font-size="24px" font-style="normal" font-weight="normal" text-decoration="none" x="200" y="360"></text><text fill="#eeeeee" stroke="none" font-family="Arial" font-size="24px" font-style="normal" font-weight="normal" text-decoration="none" x="200" y="390"></text><text fill="#eeeeee" stroke="none" font-family="Arial" font-size="24px" font-style="normal" font-weight="normal" text-decoration="none" x="200" y="420"></text><text fill="#eeeeee" stroke="none" font-family="Arial" font-size="24px" font-style="normal" font-weight="normal" text-decoration="none" x="200" y="450"></text><text fill="#eeeeee" stroke="none" font-family="Arial" font-size="24px" font-style="normal" font-weight="normal" text-decoration="none" x="200" y="480"></text><text fill="#eeeeee" stroke="none" font-family="Arial" font-size="24px" font-style="normal" font-weight="normal" text-decoration="none" x="200" y="510"></text><text fill="#eeeeee" stroke="none" font-family="Arial" font-size="24px" font-style="normal" font-weight="normal" text-decoration="none" x="200" y="540"></text><text fill="#eeeeee" stroke="none" font-family="Arial" font-size="24px" font-style="normal" font-weight="normal" text-decoration="none" x="200" y="570"></text><text fill="#eeeeee" stroke="none" font-family="Arial" font-size="24px" font-style="normal" font-weight="normal" text-decoration="none" x="200" y="600"></text><text fill="#eeeeee" stroke="none" font-family="Arial" font-size="24px" font-style="normal" font-weight="normal" text-decoration="none" x="200" y="630"></text><text fill="#eeeeee" stroke="none" font-family="Arial" font-size="24px" font-style="normal" font-weight="normal" text-decoration="none" x="200" y="660"></text><text fill="#eeeeee" stroke="none" font-family="Arial" font-size="24px" font-style="normal" font-weight="normal" text-decoration="none" x="200" y="690"></text><text fill="#eeeeee" stroke="none" font-family="Arial" font-size="24px" font-style="normal" font-weight="normal" text-decoration="none" x="200" y="720"></text><text fill="#eeeeee" stroke="none" font-family="Arial" font-size="24px" font-style="normal" font-weight="normal" text-decoration="none" x="400" y="0"></text><text fill="#eeeeee" stroke="none" font-family="Arial" font-size="24px" font-style="normal" font-weight="normal" text-decoration="none" x="400" y="30"></text><text fill="#eeeeee" stroke="none" font-family="Arial" font-size="24px" font-style="normal" font-weight="normal" text-decoration="none" x="400" y="60"></text><text fill="#eeeeee" stroke="none" font-family="Arial" font-size="24px" font-style="normal" font-weight="normal" text-decoration="none" x="400" y="90"></text><text fill="#eeeeee" stroke="none" font-family="Arial" font-size="24px" font-style="normal" font-weight="normal" text-decoration="none" x="400" y="120"></text><text fill="#eeeeee" stroke="none" font-family="Arial" font-size="24px" font-style="normal" font-weight="normal" text-decoration="none" x="400" y="150"></text><text fill="#eeeeee" stroke="none" font-family="Arial" font-size="24px" font-style="normal" font-weight="normal" text-decoration="none" x="400" y="180"></text><text fill="#eeeeee" stroke="none" font-family="Arial" font-size="24px" font-style="normal" font-weight="normal" text-decoration="none" x="400" y="210"></text><text fill="#eeeeee" stroke="none" font-family="Arial" font-size="24px" font-style="normal" font-weight="normal" text-decoration="none" x="400" y="240"></text><text fill="#eeeeee" stroke="none" font-family="Arial" font-size="24px" font-style="normal" font-weight="normal" text-decoration="none" x="400" y="270"></text><text fill="#eeeeee" stroke="none" font-family="Arial" font-size="24px" font-style="normal" font-weight="normal" text-decoration="none" x="400" y="300"></text><text fill="#eeeeee" stroke="none" font-family="Arial" font-size="24px" font-style="normal" font-weight="normal" text-decoration="none" x="400" y="330"></text><text fill="#eeeeee" stroke="none" font-family="Arial" font-size="24px" font-style="normal" font-weight="normal" text-decoration="none" x="400" y="360"></text><text fill="#eeeeee" stroke="none" font-family="Arial" font-size="24px" font-style="normal" font-weight="normal" text-decoration="none" x="400" y="390"></text><text fill="#eeeeee" stroke="none" font-family="Arial" font-size="24px" font-style="normal" font-weight="normal" text-decoration="none" x="400" y="420"></text><text fill="#eeeeee" stroke="none" font-family="Arial" font-size="24px" font-style="normal" font-weight="normal" text-decoration="none" x="400" y="450"></text><text fill="#eeeeee" stroke="none" font-family="Arial" font-size="24px" font-style="normal" font-weight="normal" text-decoration="none" x="400" y="480"></text><text fill="#eeeeee" stroke="none" font-family="Arial" font-size="24px" font-style="normal" font-weight="normal" text-decoration="none" x="400" y="510"></text><text fill="#eeeeee" stroke="none" font-family="Arial" font-size="24px" font-style="normal" font-weight="normal" text-decoration="none" x="400" y="540"></text><text fill="#eeeeee" stroke="none" font-family="Arial" font-size="24px" font-style="normal" font-weight="normal" text-decoration="none" x="400" y="570"></text><text fill="#eeeeee" stroke="none" font-family="Arial" font-size="24px" font-style="normal" font-weight="normal" text-decoration="none" x="400" y="600"></text><text fill="#eeeeee" stroke="none" font-family="Arial" font-size="24px" font-style="normal" font-weight="normal" text-decoration="none" x="400" y="630"></text><text fill="#eeeeee" stroke="none" font-family="Arial" font-size="24px" font-style="normal" font-weight="normal" text-decoration="none" x="400" y="660"></text><text fill="#eeeeee" stroke="none" font-family="Arial" font-size="24px" font-style="normal" font-weight="normal" text-decoration="none" x="400" y="690"></text><text fill="#eeeeee" stroke="none" font-family="Arial" font-size="24px" font-style="normal" font-weight="normal" text-decoration="none" x="400" y="720"></text><g transform="translate(-78,-70) scale(1,1)"><rect fill="#C0C0C0" stroke="none" x="247" y="87" width="200" height="127" opacity="0.2"/></g><g transform="translate(-78,-70) scale(1,1)"><rect fill="#FFFFFF" stroke="none" x="240" y="80" width="200" height="127"/></g><g transform="translate(-78,-70) scale(1,1)"><path fill="none" stroke="#000000" d="M 240 80 L 440 80 L 440 207 L 240 207 L 240 80 Z Z" stroke-miterlimit="10"/></g><g transform="translate(-78,-70) scale(1,1)"><path fill="none" stroke="#000000" d="M 240 106 L 440 106" stroke-miterlimit="10"/></g><g transform="translate(-78,-70) scale(1,1)"><path fill="none" stroke="#000000" d="M 240 178 L 440 178" stroke-miterlimit="10"/></g><g transform="translate(-78,-70) scale(1,1)"><g><path fill="none" stroke="none"/><text fill="#000000" stroke="none" font-family="Times New Roman" font-size="14px" font-style="normal" font-weight="bold" text-decoration="none" x="301.51025390625" y="98.5">FacadeScene</text></g></g><g transform="translate(-78,-70) scale(1,1)"><g><path fill="none" stroke="none"/><text fill="#000000" stroke="none" font-family="Times New Roman" font-size="14px" font-style="normal" font-weight="normal" text-decoration="none" x="245" y="122.5">+drawManager</text></g></g><g transform="translate(-78,-70) scale(1,1)"><g><path fill="none" stroke="none"/><text fill="#000000" stroke="none" font-family="Times New Roman" font-size="14px" font-style="normal" font-weight="normal" text-decoration="none" x="245" y="138.5">+sceneManager</text></g></g><g transform="translate(-78,-70) scale(1,1)"><g><path fill="none" stroke="none"/><text fill="#000000" stroke="none" font-family="Times New Roman" font-size="14px" font-style="normal" font-weight="normal" text-decoration="none" x="245" y="154.5">+loadMeneger</text></g></g><g transform="translate(-78,-70) scale(1,1)"><g><path fill="none" stroke="none"/><text fill="#000000" stroke="none" font-family="Times New Roman" font-size="14px" font-style="normal" font-weight="normal" text-decoration="none" x="245" y="170.5">+transformManager</text></g></g><g transform="translate(-78,-70) scale(1,1)"><g><path fill="none" stroke="none"/><text fill="#000000" stroke="none" font-family="Times New Roman" font-size="14px" font-style="normal" font-weight="normal" text-decoration="none" x="245" y="194.5">+execute()</text></g></g><g transform="translate(-78,-70) scale(1,1)"><rect fill="#C0C0C0" stroke="none" x="95" y="231" width="144" height="59" opacity="0.2"/></g><g transform="translate(-78,-70) scale(1,1)"><rect fill="#FFFFFF" stroke="none" x="88" y="224" width="144" height="59"/></g><g transform="translate(-78,-70) scale(1,1)"><path fill="none" stroke="#000000" d="M 88 224 L 232 224 L 232 283 L 88 283 L 88 224 Z Z" stroke-miterlimit="10"/></g><g transform="translate(-78,-70) scale(1,1)"><path fill="none" stroke="#000000" d="M 88 250 L 232 250" stroke-miterlimit="10"/></g><g transform="translate(-78,-70) scale(1,1)"><path fill="none" stroke="#000000" d="M 88 260 L 232 260" stroke-miterlimit="10"/></g><g transform="translate(-78,-70) scale(1,1)"><g><path fill="none" stroke="none"/><text fill="#000000" stroke="none" font-family="Times New Roman" font-size="14px" font-style="normal" font-weight="bold" text-decoration="none" x="117.22412109375" y="242.5">LoadManager</text></g></g><g transform="translate(-78,-70) scale(1,1)"><g><path fill="none" stroke="none"/><text fill="#000000" stroke="none" font-family="Times New Roman" font-size="14px" font-style="normal" font-weight="normal" text-decoration="none" x="93" y="276.5">+loadModelFromFile()</text></g></g><g transform="translate(-78,-70) scale(1,1)"><path fill="none" stroke="#000000" d="M 232 240 L 336 240 L 336 207" stroke-miterlimit="10"/></g><g transform="translate(-78,-70) scale(1,1)"><path fill="#000000" stroke="none" d="M 340.209517756016 217.16267485762415 L 336 207 L 331.790482243984 217.16267485762415 L 336 229"/></g><g transform="translate(-78,-70) scale(1,1)"><path fill="none" stroke="#000000" d="M 340.209517756016 217.16267485762415 L 336 207 L 331.790482243984 217.16267485762415 L 336 229 L 340.209517756016 217.16267485762415" stroke-miterlimit="10"/></g><g transform="translate(-78,-70) scale(1,1)"><rect fill="#C0C0C0" stroke="none" x="95" y="303" width="144" height="93" opacity="0.2"/></g><g transform="translate(-78,-70) scale(1,1)"><rect fill="#FFFFFF" stroke="none" x="88" y="296" width="144" height="93"/></g><g transform="translate(-78,-70) scale(1,1)"><path fill="none" stroke="#000000" d="M 88 296 L 232 296 L 232 389 L 88 389 L 88 296 Z Z" stroke-miterlimit="10"/></g><g transform="translate(-78,-70) scale(1,1)"><path fill="none" stroke="#000000" d="M 88 322 L 232 322" stroke-miterlimit="10"/></g><g transform="translate(-78,-70) scale(1,1)"><path fill="none" stroke="#000000" d="M 88 332 L 232 332" stroke-miterlimit="10"/></g><g transform="translate(-78,-70) scale(1,1)"><g><path fill="none" stroke="none"/><text fill="#000000" stroke="none" font-family="Times New Roman" font-size="14px" font-style="normal" font-weight="bold" text-decoration="none" x="115.67919921875" y="314.5">SceneManager</text></g></g><g transform="translate(-78,-70) scale(1,1)"><g><path fill="none" stroke="none"/><text fill="#000000" stroke="none" font-family="Times New Roman" font-size="14px" font-style="normal" font-weight="normal" text-decoration="none" x="93" y="350.5">+getScene()</text></g></g><g transform="translate(-78,-70) scale(1,1)"><g><path fill="none" stroke="none"/><text fill="#000000" stroke="none" font-family="Times New Roman" font-size="14px" font-style="normal" font-weight="normal" text-decoration="none" x="93" y="366.5">+addModel()</text></g></g><g transform="translate(-78,-70) scale(1,1)"><g><path fill="none" stroke="none"/><text fill="#000000" stroke="none" font-family="Times New Roman" font-size="14px" font-style="normal" font-weight="normal" text-decoration="none" x="93" y="382.5">+removeModel()</text></g></g><g transform="translate(-78,-70) scale(1,1)"><path fill="none" stroke="#000000" d="M 232 304 L 336 304 L 336 207" stroke-miterlimit="10"/></g><g transform="translate(-78,-70) scale(1,1)"><path fill="#000000" stroke="none" d="M 340.209517756016 217.16267485762415 L 336 207 L 331.790482243984 217.16267485762415 L 336 229"/></g><g transform="translate(-78,-70) scale(1,1)"><path fill="none" stroke="#000000" d="M 340.209517756016 217.16267485762415 L 336 207 L 331.790482243984 217.16267485762415 L 336 229 L 340.209517756016 217.16267485762415" stroke-miterlimit="10"/></g><g transform="translate(-78,-70) scale(1,1)"><rect fill="#C0C0C0" stroke="none" x="247" y="479" width="195.59375" height="95" opacity="0.2"/></g><g transform="translate(-78,-70) scale(1,1)"><rect fill="#ffffff" stroke="none" x="240" y="472" width="195.59375" height="95"/></g><g transform="translate(-78,-70) scale(1,1)"><path fill="none" stroke="#000000" d="M 240 472 L 435.59375 472 L 435.59375 567 L 240 567 L 240 472 Z Z" stroke-miterlimit="10"/></g><g transform="translate(-78,-70) scale(1,1)"><path fill="none" stroke="#000000" d="M 240 498 L 435.59375 498" stroke-miterlimit="10"/></g><g transform="translate(-78,-70) scale(1,1)"><path fill="none" stroke="#000000" d="M 240 508 L 435.59375 508" stroke-miterlimit="10"/></g><g transform="translate(-78,-70) scale(1,1)"><g><path fill="none" stroke="none"/><text fill="#000000" stroke="none" font-family="Times New Roman" font-size="14px" font-style="normal" font-weight="bold" text-decoration="none" x="278.4404296875" y="490.5">TransformManager</text></g></g><g transform="translate(-78,-70) scale(1,1)"><g><path fill="none" stroke="none"/><text fill="#000000" stroke="none" font-family="Times New Roman" font-size="14px" font-style="normal" font-weight="normal" text-decoration="none" x="245" y="524.5">+RotateObject(object, dx, dy, dz)</text></g></g><g transform="translate(-78,-70) scale(1,1)"><g><path fill="none" stroke="none"/><text fill="#000000" stroke="none" font-family="Times New Roman" font-size="14px" font-style="normal" font-weight="normal" text-decoration="none" x="245" y="540.5">+ScaleObject(object, dx, dy, dz)</text></g></g><g transform="translate(-78,-70) scale(1,1)"><g><path fill="none" stroke="none"/><text fill="#000000" stroke="none" font-family="Times New Roman" font-size="14px" font-style="normal" font-weight="normal" text-decoration="none" x="245" y="556.5">+ShiftObject(object, dx, dy, dz)</text></g></g><g transform="translate(-78,-70) scale(1,1)"><path fill="none" stroke="#000000" d="M 336 472 L 336 207" stroke-miterlimit="10"/></g><g transform="translate(-78,-70) scale(1,1)"><path fill="#000000" stroke="none" d="M 340.209517756016 217.16267485762415 L 336 207 L 331.790482243984 217.16267485762415 L 336 229"/></g><g transform="translate(-78,-70) scale(1,1)"><path fill="none" stroke="#000000" d="M 340.209517756016 217.16267485762415 L 336 207 L 331.790482243984 217.16267485762415 L 336 229 L 340.209517756016 217.16267485762415" stroke-miterlimit="10"/></g><g transform="translate(-78,-70) scale(1,1)"><rect fill="#C0C0C0" stroke="none" x="247" y="599" width="195.7900390625" height="75" opacity="0.2"/></g><g transform="translate(-78,-70) scale(1,1)"><rect fill="#ffffff" stroke="none" x="240" y="592" width="195.7900390625" height="75"/></g><g transform="translate(-78,-70) scale(1,1)"><path fill="none" stroke="#000000" d="M 240 592 L 435.7900390625 592 L 435.7900390625 667 L 240 667 L 240 592 Z Z" stroke-miterlimit="10"/></g><g transform="translate(-78,-70) scale(1,1)"><path fill="none" stroke="#000000" d="M 240 618 L 435.7900390625 618" stroke-miterlimit="10"/></g><g transform="translate(-78,-70) scale(1,1)"><path fill="none" stroke="#000000" d="M 240 628 L 435.7900390625 628" stroke-miterlimit="10"/></g><g transform="translate(-78,-70) scale(1,1)"><g><path fill="none" stroke="none"/><text fill="#000000" stroke="none" font-family="Times New Roman" font-size="14px" font-style="italic" font-weight="bold" text-decoration="none" x="287.97900390625" y="610.5">TransformAction</text></g></g><g transform="translate(-78,-70) scale(1,1)"><g><path fill="none" stroke="none"/><text fill="#000000" stroke="none" font-family="Times New Roman" font-size="14px" font-style="normal" font-weight="normal" text-decoration="none" x="245" y="644.5">+transform()</text></g></g><g transform="translate(-78,-70) scale(1,1)"><g><path fill="none" stroke="none"/><text fill="#000000" stroke="none" font-family="Times New Roman" font-size="14px" font-style="normal" font-weight="normal" text-decoration="none" x="245" y="660.5">+addAction()</text></g></g><g transform="translate(-78,-70) scale(1,1)"><rect fill="#C0C0C0" stroke="none" x="351" y="735" width="94.33251953125" height="59" opacity="0.2"/></g><g transform="translate(-78,-70) scale(1,1)"><rect fill="#ffffff" stroke="none" x="344" y="728" width="94.33251953125" height="59"/></g><g transform="translate(-78,-70) scale(1,1)"><path fill="none" stroke="#000000" d="M 344 728 L 438.33251953125 728 L 438.33251953125 787 L 344 787 L 344 728 Z Z" stroke-miterlimit="10"/></g><g transform="translate(-78,-70) scale(1,1)"><path fill="none" stroke="#000000" d="M 344 754 L 438.33251953125 754" stroke-miterlimit="10"/></g><g transform="translate(-78,-70) scale(1,1)"><path fill="none" stroke="#000000" d="M 344 764 L 438.33251953125 764" stroke-miterlimit="10"/></g><g transform="translate(-78,-70) scale(1,1)"><g><path fill="none" stroke="none"/><text fill="#000000" stroke="none" font-family="Times New Roman" font-size="14px" font-style="normal" font-weight="bold" text-decoration="none" x="351.510986328125" y="746.5">RotateAction</text></g></g><g transform="translate(-78,-70) scale(1,1)"><g><path fill="none" stroke="none"/><text fill="#000000" stroke="none" font-family="Times New Roman" font-size="14px" font-style="normal" font-weight="normal" text-decoration="none" x="349" y="780.5">+transform()</text></g></g><g transform="translate(-78,-70) scale(1,1)"><rect fill="#C0C0C0" stroke="none" x="239" y="735" width="95.7685546875" height="59" opacity="0.2"/></g><g transform="translate(-78,-70) scale(1,1)"><rect fill="#ffffff" stroke="none" x="232" y="728" width="95.7685546875" height="59"/></g><g transform="translate(-78,-70) scale(1,1)"><path fill="none" stroke="#000000" d="M 232 728 L 327.7685546875 728 L 327.7685546875 787 L 232 787 L 232 728 Z Z" stroke-miterlimit="10"/></g><g transform="translate(-78,-70) scale(1,1)"><path fill="none" stroke="#000000" d="M 232 754 L 327.7685546875 754" stroke-miterlimit="10"/></g><g transform="translate(-78,-70) scale(1,1)"><path fill="none" stroke="#000000" d="M 232 764 L 327.7685546875 764" stroke-miterlimit="10"/></g><g transform="translate(-78,-70) scale(1,1)"><g><path fill="none" stroke="none"/><text fill="#000000" stroke="none" font-family="Times New Roman" font-size="14px" font-style="normal" font-weight="bold" text-decoration="none" x="243.33935546875" y="746.5">MoveAction</text></g></g><g transform="translate(-78,-70) scale(1,1)"><g><path fill="none" stroke="none"/><text fill="#000000" stroke="none" font-family="Times New Roman" font-size="14px" font-style="normal" font-weight="normal" text-decoration="none" x="237" y="780.5">+transform()</text></g></g><g transform="translate(-78,-70) scale(1,1)"><path fill="none" stroke="#000000" d="M 387 728 L 387 704 L 336 704 L 336 667" stroke-miterlimit="10"/></g><g transform="translate(-78,-70) scale(1,1)"><path fill="#FFFFFF" stroke="none" d="M 344.419035512032 687.3253497152483 L 336 667 L 327.580964487968 687.3253497152483"/></g><g transform="translate(-78,-70) scale(1,1)"><path fill="none" stroke="#000000" d="M 344.419035512032 687.3253497152483 L 336 667 L 327.580964487968 687.3253497152483 L 344.419035512032 687.3253497152483" stroke-miterlimit="10"/></g><g transform="translate(-78,-70) scale(1,1)"><path fill="none" stroke="#000000" d="M 279 728 L 279 704 L 336 704 L 336 667" stroke-miterlimit="10"/></g><g transform="translate(-78,-70) scale(1,1)"><path fill="#FFFFFF" stroke="none" d="M 344.419035512032 687.3253497152483 L 336 667 L 327.580964487968 687.3253497152483"/></g><g transform="translate(-78,-70) scale(1,1)"><path fill="none" stroke="#000000" d="M 344.419035512032 687.3253497152483 L 336 667 L 327.580964487968 687.3253497152483 L 344.419035512032 687.3253497152483" stroke-miterlimit="10"/></g><g transform="translate(-78,-70) scale(1,1)"><path fill="none" stroke="#000000" d="M 336 592 L 336 567" stroke-miterlimit="10"/></g><g transform="translate(-78,-70) scale(1,1)"><path fill="none" stroke="#000000" d="M 340.209517756016 577.1626748576241 L 336 567 L 331.790482243984 577.1626748576241" stroke-miterlimit="10"/></g><g transform="translate(-78,-70) scale(1,1)"><rect fill="#C0C0C0" stroke="none" x="463" y="223" width="168" height="73" opacity="0.2"/></g><g transform="translate(-78,-70) scale(1,1)"><rect fill="#ffffff" stroke="none" x="456" y="216" width="168" height="73"/></g><g transform="translate(-78,-70) scale(1,1)"><path fill="none" stroke="#000000" d="M 456 216 L 624 216 L 624 289 L 456 289 L 456 216 Z Z" stroke-miterlimit="10"/></g><g transform="translate(-78,-70) scale(1,1)"><path fill="none" stroke="#000000" d="M 456 242 L 624 242" stroke-miterlimit="10"/></g><g transform="translate(-78,-70) scale(1,1)"><path fill="none" stroke="#000000" d="M 456 266 L 624 266" stroke-miterlimit="10"/></g><g transform="translate(-78,-70) scale(1,1)"><g><path fill="none" stroke="none"/><text fill="#000000" stroke="none" font-family="Times New Roman" font-size="14px" font-style="normal" font-weight="bold" text-decoration="none" x="496.06884765625" y="234.5">DrawManager</text></g></g><g transform="translate(-78,-70) scale(1,1)"><g><path fill="none" stroke="none"/><text fill="#000000" stroke="none" font-family="Times New Roman" font-size="14px" font-style="normal" font-weight="normal" text-decoration="none" x="461" y="258.5">+RayTracingSolution</text></g></g><g transform="translate(-78,-70) scale(1,1)"><g><path fill="none" stroke="none"/><text fill="#000000" stroke="none" font-family="Times New Roman" font-size="14px" font-style="normal" font-weight="normal" text-decoration="none" x="461" y="282.5">+drawScene()</text></g></g><g transform="translate(-78,-70) scale(1,1)"><rect fill="#C0C0C0" stroke="none" x="463" y="327" width="168" height="137" opacity="0.2"/></g><g transform="translate(-78,-70) scale(1,1)"><rect fill="#ffffff" stroke="none" x="456" y="320" width="168" height="137"/></g><g transform="translate(-78,-70) scale(1,1)"><path fill="none" stroke="#000000" d="M 456 320 L 624 320 L 624 457 L 456 457 L 456 320 Z Z" stroke-miterlimit="10"/></g><g transform="translate(-78,-70) scale(1,1)"><path fill="none" stroke="#000000" d="M 456 346 L 624 346" stroke-miterlimit="10"/></g><g transform="translate(-78,-70) scale(1,1)"><path fill="none" stroke="#000000" d="M 456 402 L 624 402" stroke-miterlimit="10"/></g><g transform="translate(-78,-70) scale(1,1)"><g><path fill="none" stroke="none"/><text fill="#000000" stroke="none" font-family="Times New Roman" font-size="14px" font-style="normal" font-weight="bold" text-decoration="none" x="504.74365234375" y="338.5">RayTracing</text></g></g><g transform="translate(-78,-70) scale(1,1)"><g><path fill="none" stroke="none"/><text fill="#000000" stroke="none" font-family="Times New Roman" font-size="14px" font-style="normal" font-weight="normal" text-decoration="none" x="461" y="362.5">+Camera</text></g></g><g transform="translate(-78,-70) scale(1,1)"><g><path fill="none" stroke="none"/><text fill="#000000" stroke="none" font-family="Times New Roman" font-size="14px" font-style="normal" font-weight="normal" text-decoration="none" x="461" y="378.5">+Scene</text></g></g><g transform="translate(-78,-70) scale(1,1)"><g><path fill="none" stroke="none"/><text fill="#000000" stroke="none" font-family="Times New Roman" font-size="14px" font-style="normal" font-weight="normal" text-decoration="none" x="461" y="394.5">+Drawer</text></g></g><g transform="translate(-78,-70) scale(1,1)"><g><path fill="none" stroke="none"/><text fill="#000000" stroke="none" font-family="Times New Roman" font-size="14px" font-style="normal" font-weight="normal" text-decoration="none" x="461" y="418.5">+render()</text></g></g><g transform="translate(-78,-70) scale(1,1)"><g><path fill="none" stroke="none"/><text fill="#000000" stroke="none" font-family="Times New Roman" font-size="14px" font-style="normal" font-weight="normal" text-decoration="none" x="461" y="434.5">+parallelRender()</text></g></g><g transform="translate(-78,-70) scale(1,1)"><g><path fill="none" stroke="none"/><text fill="#000000" stroke="none" font-family="Times New Roman" font-size="14px" font-style="normal" font-weight="normal" text-decoration="none" x="461" y="450.5">+castRay(ray)</text></g></g><g transform="translate(-78,-70) scale(1,1)"><rect fill="#C0C0C0" stroke="none" x="463" y="495" width="166.14111328125" height="77" opacity="0.2"/></g><g transform="translate(-78,-70) scale(1,1)"><rect fill="#ffffff" stroke="none" x="456" y="488" width="166.14111328125" height="77"/></g><g transform="translate(-78,-70) scale(1,1)"><path fill="none" stroke="#000000" d="M 456 488 L 622.14111328125 488 L 622.14111328125 565 L 456 565 L 456 488 Z Z" stroke-miterlimit="10"/></g><g transform="translate(-78,-70) scale(1,1)"><path fill="none" stroke="#000000" d="M 456 514 L 622.14111328125 514" stroke-miterlimit="10"/></g><g transform="translate(-78,-70) scale(1,1)"><path fill="none" stroke="#000000" d="M 456 524 L 622.14111328125 524" stroke-miterlimit="10"/></g><g transform="translate(-78,-70) scale(1,1)"><g><path fill="none" stroke="none"/><text fill="#000000" stroke="none" font-family="Times New Roman" font-size="14px" font-style="italic" font-weight="bold" text-decoration="none" x="517.291259765625" y="506.5">Drawer</text></g></g><g transform="translate(-78,-70) scale(1,1)"><g><path fill="none" stroke="none"/><text fill="#000000" stroke="none" font-family="Times New Roman" font-size="14px" font-style="normal" font-weight="normal" text-decoration="none" x="461" y="542.5">+setPixelColor(i, g, rgb)</text></g></g><g transform="translate(-78,-70) scale(1,1)"><g><path fill="none" stroke="none"/><text fill="#000000" stroke="none" font-family="Times New Roman" font-size="14px" font-style="normal" font-weight="normal" text-decoration="none" x="461" y="558.5">+setScene()</text></g></g><g transform="translate(-78,-70) scale(1,1)"><rect fill="#C0C0C0" stroke="none" x="463" y="607" width="168" height="107" opacity="0.2"/></g><g transform="translate(-78,-70) scale(1,1)"><rect fill="#ffffff" stroke="none" x="456" y="600" width="168" height="107"/></g><g transform="translate(-78,-70) scale(1,1)"><path fill="none" stroke="#000000" d="M 456 600 L 624 600 L 624 707 L 456 707 L 456 600 Z Z" stroke-miterlimit="10"/></g><g transform="translate(-78,-70) scale(1,1)"><path fill="none" stroke="#000000" d="M 456 626 L 624 626" stroke-miterlimit="10"/></g><g transform="translate(-78,-70) scale(1,1)"><path fill="none" stroke="#000000" d="M 456 666 L 624 666" stroke-miterlimit="10"/></g><g transform="translate(-78,-70) scale(1,1)"><g><path fill="none" stroke="none"/><text fill="#000000" stroke="none" font-family="Times New Roman" font-size="14px" font-style="normal" font-weight="bold" text-decoration="none" x="509.29296875" y="618.5">QtDrawer</text></g></g><g transform="translate(-78,-70) scale(1,1)"><g><path fill="none" stroke="none"/><text fill="#000000" stroke="none" font-family="Times New Roman" font-size="14px" font-style="normal" font-weight="normal" text-decoration="none" x="461" y="642.5">+QGraphicViewer</text></g></g><g transform="translate(-78,-70) scale(1,1)"><g><path fill="none" stroke="none"/><text fill="#000000" stroke="none" font-family="Times New Roman" font-size="14px" font-style="normal" font-weight="normal" text-decoration="none" x="461" y="658.5">+QImage</text></g></g><g transform="translate(-78,-70) scale(1,1)"><g><path fill="none" stroke="none"/><text fill="#000000" stroke="none" font-family="Times New Roman" font-size="14px" font-style="normal" font-weight="normal" text-decoration="none" x="461" y="684.5">+setPixel(i, g, rgb)</text></g></g><g transform="translate(-78,-70) scale(1,1)"><g><path fill="none" stroke="none"/><text fill="#000000" stroke="none" font-family="Times New Roman" font-size="14px" font-style="normal" font-weight="normal" text-decoration="none" x="461" y="700.5">+setScene()</text></g></g><g transform="translate(-78,-70) scale(1,1)"><path fill="none" stroke="#000000" d="M 544 600 L 544 565" stroke-miterlimit="10"/></g><g transform="translate(-78,-70) scale(1,1)"><path fill="#FFFFFF" stroke="none" d="M 552.419035512032 585.3253497152483 L 544 565 L 535.580964487968 585.3253497152483"/></g><g transform="translate(-78,-70) scale(1,1)"><path fill="none" stroke="#000000" d="M 552.419035512032 585.3253497152483 L 544 565 L 535.580964487968 585.3253497152483 L 552.419035512032 585.3253497152483" stroke-miterlimit="10"/></g><g transform="translate(-78,-70) scale(1,1)"><path fill="none" stroke="#000000" d="M 540 488 L 540 457" stroke-miterlimit="10"/></g><g transform="translate(-78,-70) scale(1,1)"><path fill="#000000" stroke="none" d="M 544.209517756016 467.16267485762415 L 540 457 L 535.790482243984 467.16267485762415 L 540 479"/></g><g transform="translate(-78,-70) scale(1,1)"><path fill="none" stroke="#000000" d="M 544.209517756016 467.16267485762415 L 540 457 L 535.790482243984 467.16267485762415 L 540 479 L 544.209517756016 467.16267485762415" stroke-miterlimit="10"/></g><g transform="translate(-78,-70) scale(1,1)"><path fill="none" stroke="#000000" d="M 456 240 L 336 240 L 336 207" stroke-miterlimit="10"/></g><g transform="translate(-78,-70) scale(1,1)"><path fill="#000000" stroke="none" d="M 340.209517756016 217.16267485762415 L 336 207 L 331.790482243984 217.16267485762415 L 336 229"/></g><g transform="translate(-78,-70) scale(1,1)"><path fill="none" stroke="#000000" d="M 340.209517756016 217.16267485762415 L 336 207 L 331.790482243984 217.16267485762415 L 336 229 L 340.209517756016 217.16267485762415" stroke-miterlimit="10"/></g><g transform="translate(-78,-70) scale(1,1)"><rect fill="#C0C0C0" stroke="none" x="95" y="407" width="144" height="59" opacity="0.2"/></g><g transform="translate(-78,-70) scale(1,1)"><rect fill="#ffffff" stroke="none" x="88" y="400" width="144" height="59"/></g><g transform="translate(-78,-70) scale(1,1)"><path fill="none" stroke="#000000" d="M 88 400 L 232 400 L 232 459 L 88 459 L 88 400 Z Z" stroke-miterlimit="10"/></g><g transform="translate(-78,-70) scale(1,1)"><path fill="none" stroke="#000000" d="M 88 426 L 232 426" stroke-miterlimit="10"/></g><g transform="translate(-78,-70) scale(1,1)"><path fill="none" stroke="#000000" d="M 88 436 L 232 436" stroke-miterlimit="10"/></g><g transform="translate(-78,-70) scale(1,1)"><g><path fill="none" stroke="none"/><text fill="#000000" stroke="none" font-family="Times New Roman" font-size="14px" font-style="normal" font-weight="bold" text-decoration="none" x="106.74462890625" y="418.5">MaterialManager</text></g></g><g transform="translate(-78,-70) scale(1,1)"><g><path fill="none" stroke="none"/><text fill="#000000" stroke="none" font-family="Times New Roman" font-size="14px" font-style="normal" font-weight="normal" text-decoration="none" x="93" y="452.5">+getMaterial()</text></g></g><g transform="translate(-78,-70) scale(1,1)"><path fill="none" stroke="#000000" d="M 232 408 L 336 408 L 336 207" stroke-miterlimit="10"/></g><g transform="translate(-78,-70) scale(1,1)"><path fill="#000000" stroke="none" d="M 340.209517756016 217.16267485762415 L 336 207 L 331.790482243984 217.16267485762415 L 336 229"/></g><g transform="translate(-78,-70) scale(1,1)"><path fill="none" stroke="#000000" d="M 340.209517756016 217.16267485762415 L 336 207 L 331.790482243984 217.16267485762415 L 336 229 L 340.209517756016 217.16267485762415" stroke-miterlimit="10"/></g><g transform="translate(-78,-70) scale(1,1)"><rect fill="#C0C0C0" stroke="none" x="95" y="495" width="144" height="110" opacity="0.2"/></g><g transform="translate(-78,-70) scale(1,1)"><rect fill="#ffffff" stroke="none" x="88" y="488" width="144" height="110"/></g><g transform="translate(-78,-70) scale(1,1)"><path fill="none" stroke="#000000" d="M 88 488 L 232 488 L 232 598 L 88 598 L 88 488 Z Z" stroke-miterlimit="10"/></g><g transform="translate(-78,-70) scale(1,1)"><path fill="none" stroke="#000000" d="M 88 514 L 232 514" stroke-miterlimit="10"/></g><g transform="translate(-78,-70) scale(1,1)"><path fill="none" stroke="#000000" d="M 88 524 L 232 524" stroke-miterlimit="10"/></g><g transform="translate(-78,-70) scale(1,1)"><g><path fill="none" stroke="none"/><text fill="#000000" stroke="none" font-family="Times New Roman" font-size="14px" font-style="normal" font-weight="bold" text-decoration="none" x="109.05859375" y="506.5">MaterialSolution</text></g></g><g transform="translate(-78,-70) scale(1,1)"><g><path fill="none" stroke="none"/><text fill="#000000" stroke="none" font-family="Times New Roman" font-size="14px" font-style="normal" font-weight="normal" text-decoration="none" x="93" y="540.5">+registrate()</text></g></g><g transform="translate(-78,-70) scale(1,1)"><g><path fill="none" stroke="none"/><text fill="#000000" stroke="none" font-family="Times New Roman" font-size="14px" font-style="normal" font-weight="normal" text-decoration="none" x="93" y="556.5">+checkId()</text></g></g><g transform="translate(-78,-70) scale(1,1)"><g><path fill="none" stroke="none"/><text fill="#000000" stroke="none" font-family="Times New Roman" font-size="14px" font-style="normal" font-weight="normal" text-decoration="none" x="93" y="572.5">+getMaterial()</text></g></g><g transform="translate(-78,-70) scale(1,1)"><path fill="none" stroke="#000000" d="M 160 488 L 160 459" stroke-miterlimit="10"/></g><g transform="translate(-78,-70) scale(1,1)"><path fill="#000000" stroke="none" d="M 164.209517756016 469.16267485762415 L 160 459 L 155.790482243984 469.16267485762415 L 160 481"/></g><g transform="translate(-78,-70) scale(1,1)"><path fill="none" stroke="#000000" d="M 164.209517756016 469.16267485762415 L 160 459 L 155.790482243984 469.16267485762415 L 160 481 L 164.209517756016 469.16267485762415" stroke-miterlimit="10"/></g><g transform="translate(-78,-70) scale(1,1)"><rect fill="#C0C0C0" stroke="none" x="495" y="87" width="136" height="61" opacity="0.2"/></g><g transform="translate(-78,-70) scale(1,1)"><rect fill="#FFFFFF" stroke="none" x="488" y="80" width="136" height="61"/></g><g transform="translate(-78,-70) scale(1,1)"><path fill="none" stroke="#000000" d="M 488 80 L 624 80 L 624 141 L 488 141 L 488 80 Z Z" stroke-miterlimit="10"/></g><g transform="translate(-78,-70) scale(1,1)"><path fill="none" stroke="#000000" d="M 488 106 L 624 106" stroke-miterlimit="10"/></g><g transform="translate(-78,-70) scale(1,1)"><path fill="none" stroke="#000000" d="M 488 116 L 624 116" stroke-miterlimit="10"/></g><g transform="translate(-78,-70) scale(1,1)"><g><path fill="none" stroke="none"/><text fill="#000000" stroke="none" font-family="Times New Roman" font-size="14px" font-style="italic" font-weight="bold" text-decoration="none" x="512.04833984375" y="98.5">BaseCommand</text></g></g><g transform="translate(-78,-70) scale(1,1)"><g><path fill="none" stroke="none"/><text fill="#000000" stroke="none" font-family="Times New Roman" font-size="14px" font-style="normal" font-weight="normal" text-decoration="none" x="493" y="134.5">+execute()</text></g></g><g transform="translate(-78,-70) scale(1,1)"><path fill="none" stroke="#000000" d="M 440 96 L 488 96" stroke-miterlimit="10"/></g><g transform="translate(-78,-70) scale(1,1)"><path fill="none" stroke="#000000" d="M 477.83732514237585 100.20951775601598 L 488 96 L 477.83732514237585 91.79048224398402" stroke-miterlimit="10"/></g><g transform="translate(-78,-70) scale(1,1)"><path fill="none" stroke="#000000" d="M 540 320 L 540 289" stroke-miterlimit="10"/></g><g transform="translate(-78,-70) scale(1,1)"><path fill="#000000" stroke="none" d="M 544.209517756016 299.16267485762415 L 540 289 L 535.790482243984 299.16267485762415 L 540 311"/></g><g transform="translate(-78,-70) scale(1,1)"><path fill="none" stroke="#000000" d="M 544.209517756016 299.16267485762415 L 540 289 L 535.790482243984 299.16267485762415 L 540 311 L 544.209517756016 299.16267485762415" stroke-miterlimit="10"/></g></g></svg>